<?xml version="1.0" encoding="iso-8859-1"?>
<!-- Generator: Adobe Illustrator 19.0.0, SVG Export Plug-In . SVG Version: 6.00 Build 0)  -->
<svg version="1.1" id="Layer_1" xmlns="http://www.w3.org/2000/svg" xmlns:xlink="http://www.w3.org/1999/xlink" x="0px" y="0px"
	 viewBox="0 0 512 512" style="enable-background:new 0 0 512 512;" xml:space="preserve">
<polygon style="fill:#F95428;" points="354.993,512 323.145,468.609 315.994,458.867 309.226,449.655 321.332,443.642 
	332.898,437.887 336.164,448.845 339.734,460.805 "/>
<path style="fill:#E54728;" d="M331.755,464.808c2.696-1.273,5.362-2.604,7.979-4.004l-3.57-11.96l-3.266-10.958l-11.566,5.755
	l-12.106,6.014l6.768,9.212L354.993,512L331.755,464.808z"/>
<g>
	<polygon style="fill:#F95428;" points="202.77,449.667 196.013,458.879 188.873,468.609 157.002,512 172.284,460.793 
		175.843,448.856 179.109,437.898 190.776,443.698 	"/>
	<path style="fill:#F95428;" d="M418.712,63.313l-32.051,11.419l0.36,0.18l-38.019,76.41l-10.935-5.439l-9.223-4.595l37.828-76.039
		l-11.419-32.062c-0.98-2.759-1.453-5.575-1.453-8.345c0-10.203,6.352-19.764,16.51-23.39C373.068,0.473,375.884,0,378.654,0
		c10.203,0,19.764,6.352,23.39,16.51c12.928-4.595,27.129,2.14,31.735,15.068C438.386,44.495,431.64,58.707,418.712,63.313z"/>
</g>
<g>
	<path style="fill:#E54728;" d="M402.045,16.51l-63.977,129.374l-9.223-4.595l37.828-76.039l-11.419-32.062
		c-0.98-2.759-1.453-5.575-1.453-8.345c0-10.203,6.352-19.764,16.51-23.39C373.068,0.473,375.884,0,378.654,0
		C388.857,0,398.418,6.352,402.045,16.51z"/>
	<path style="fill:#E54728;" d="M183.152,141.289l-9.223,4.583l-10.946,5.451l-37.997-76.41l0.36-0.18L93.284,63.313
		c-12.928-4.606-19.663-18.818-15.068-31.735c3.626-10.169,13.199-16.51,23.413-16.51c2.759,0,5.575,0.462,8.322,1.441l0.462-1.194
		C114.343,5.856,123.555,0,133.353,0c2.77,0,5.575,0.473,8.334,1.453c12.928,4.606,19.663,18.807,15.068,31.735l-11.431,32.051
		L183.152,141.289z"/>
</g>
<path style="fill:#F95428;" d="M183.152,141.289l-9.223,4.583L109.951,16.51l0.462-1.194C114.343,5.856,123.555,0,133.353,0
	c2.77,0,5.575,0.473,8.334,1.453c12.928,4.606,19.663,18.807,15.068,31.735l-11.431,32.051L183.152,141.289z"/>
<path style="fill:#F7B239;" d="M433.634,290.585c0,3.007-0.079,6.002-0.225,8.976c-0.135,2.905-0.349,5.789-0.631,8.649
	c-0.282,2.759-0.619,5.507-1.014,8.232c-1.385,9.516-3.525,18.796-6.363,27.76c-1.824,5.766-3.93,11.408-6.318,16.904
	c-9.201,21.262-22.444,40.373-38.763,56.353c-4.448,4.37-9.122,8.491-14.009,12.365c-7.568,6.014-15.642,11.408-24.145,16.138
	c-4.978,2.77-10.113,5.304-15.372,7.59c-8.435,3.671-17.208,6.701-26.262,9.043c-5.439,1.396-10.969,2.545-16.6,3.435
	c-9.099,1.441-18.424,2.185-27.929,2.185h-0.338c-6.036-0.011-11.982-0.327-17.861-0.912h-0.011
	c-10.507-1.081-20.733-3.063-30.62-5.879h-0.011c-6.712-1.926-13.266-4.223-19.629-6.881c-9.82-4.111-19.19-9.066-28.019-14.787
	c-5.023-3.255-9.876-6.757-14.528-10.485c-8.142-6.532-15.699-13.762-22.58-21.6c-4.572-5.214-8.84-10.687-12.782-16.419
	c-7.455-10.822-13.75-22.523-18.683-34.911c-0.518-1.284-1.014-2.579-1.498-3.874c-3.086-8.322-5.575-16.938-7.41-25.8
	c-2.399-11.656-3.66-23.717-3.66-36.082c0-37.546,11.645-72.367,31.51-101.051c4.065-5.856,8.469-11.464,13.187-16.78
	c6.802-7.658,14.235-14.719,22.231-21.093c4.662-3.728,9.516-7.207,14.539-10.451c7.917-5.113,16.262-9.606,24.978-13.424
	c5.147-2.252,10.428-4.268,15.823-6.036c8.717-2.86,17.748-5.056,27.005-6.543c5.597-0.901,11.284-1.532,17.039-1.892
	c3.739-0.236,7.512-0.36,11.318-0.36c5.991,0,11.915,0.293,17.748,0.867c6.239,0.631,12.388,1.565,18.424,2.815
	c34.922,7.23,66.095,24.708,90.228,49.157c2.68,2.714,5.282,5.518,7.782,8.401c2.399,2.759,4.719,5.597,6.937,8.503
	c6.611,8.626,12.444,17.872,17.399,27.636c1.385,2.748,2.714,5.541,3.964,8.379c1.239,2.804,2.41,5.642,3.514,8.514
	c3.401,8.908,6.115,18.154,8.052,27.692c1.126,5.541,2.005,11.172,2.601,16.881C433.296,277.971,433.634,284.244,433.634,290.585z"
	/>
<path style="fill:#E54728;" d="M190.776,443.698l-11.667-5.8l-3.266,10.958L157.002,512l23.32-47.16
	c2.376,1.122,4.778,2.198,7.211,3.217c0.439,0.18,0.89,0.372,1.34,0.552l7.14-9.73l6.757-9.212L190.776,443.698z"/>
<path style="fill:#E09B2D;" d="M290.571,454.543c-9.82-4.111-19.19-9.066-28.019-14.787c-5.023-3.255-9.876-6.757-14.528-10.485
	c-8.142-6.532-15.699-13.762-22.58-21.6c-4.572-5.214-8.84-10.687-12.782-16.419c-7.455-10.822-13.75-22.523-18.683-34.911
	c-0.518-1.284-1.014-2.579-1.498-3.874c-3.086-8.322-5.575-16.938-7.41-25.8c-2.399-11.656-3.66-23.717-3.66-36.082
	c0-37.546,11.645-72.367,31.51-101.051c4.065-5.856,8.469-11.464,13.187-16.78c6.802-7.658,14.235-14.719,22.231-21.093
	c4.662-3.728,9.516-7.207,14.539-10.451c7.917-5.113,16.262-9.606,24.978-13.424c5.147-2.252,10.428-4.268,15.823-6.036
	c1.259-0.413,2.526-0.809,3.797-1.194c-5.015-1.517-10.111-2.845-15.302-3.919c-6.036-1.25-12.185-2.185-18.424-2.815
	c-5.834-0.574-11.757-0.867-17.748-0.867c-3.806,0-7.579,0.124-11.318,0.36c-5.755,0.36-11.442,0.991-17.039,1.892
	c-9.257,1.487-18.289,3.683-27.005,6.543c-5.394,1.768-10.676,3.784-15.823,6.036c-8.717,3.818-17.061,8.311-24.978,13.424
	c-5.023,3.243-9.876,6.723-14.539,10.451c-7.996,6.374-15.428,13.435-22.231,21.093c-4.719,5.316-9.122,10.924-13.187,16.78
	c-19.866,28.683-31.51,63.504-31.51,101.051c0,12.365,1.261,24.427,3.66,36.082c1.836,8.863,4.324,17.478,7.41,25.8
	c0.484,1.295,0.98,2.59,1.498,3.874c4.933,12.388,11.228,24.089,18.683,34.911c3.942,5.732,8.21,11.205,12.782,16.419
	c6.881,7.838,14.437,15.068,22.58,21.6c4.651,3.728,9.505,7.23,14.528,10.485c8.829,5.721,18.199,10.676,28.019,14.787
	c6.363,2.658,12.917,4.955,19.629,6.881h0.011c9.888,2.815,20.113,4.797,30.62,5.879h0.011c5.879,0.586,11.825,0.901,17.861,0.912
	h0.338c9.505,0,18.829-0.743,27.929-2.185c5.631-0.89,11.16-2.038,16.6-3.435c2.359-0.61,4.698-1.27,7.018-1.973
	C301.764,458.866,296.092,456.849,290.571,454.543z"/>
<g>
	<path style="fill:#B27214;" d="M342.166,445.962c-4.978,2.77-10.113,5.304-15.372,7.59l-99.148-338.345
		c5.597-0.901,11.284-1.532,17.039-1.892L342.166,445.962z"/>
	<path style="fill:#B27214;" d="M300.532,462.595c-5.439,1.396-10.969,2.545-16.6,3.435l-99.114-338.244
		c5.147-2.252,10.428-4.268,15.823-6.036L300.532,462.595z"/>
	<path style="fill:#B27214;" d="M255.666,468.215c-6.036-0.011-11.982-0.327-17.861-0.912h-0.011l-92.492-315.642
		c4.662-3.728,9.516-7.207,14.539-10.451L255.666,468.215z"/>
	<path style="fill:#B27214;" d="M433.408,299.56c-0.135,2.905-0.349,5.789-0.631,8.649c-0.282,2.759-0.619,5.507-1.014,8.232
		l-80.971,0.248l8.12,27.715l66.489-0.203c-1.824,5.766-3.93,11.408-6.318,16.904l-55.227,0.18l16.465,56.173
		c-4.448,4.37-9.122,8.491-14.009,12.365l-92.56-316.002c6.239,0.631,12.388,1.565,18.424,2.815l14.471,49.394l75.757-0.237
		c2.68,2.714,5.282,5.518,7.782,8.401c2.399,2.759,4.719,5.597,6.937,8.503l-85.532,0.203l8.12,27.726l94.812-0.293
		c1.385,2.748,2.714,5.541,3.964,8.379c1.239,2.804,2.41,5.642,3.514,8.514l-97.346,0.27l8.131,27.726l97.267-0.304
		c1.126,5.541,2.005,11.172,2.601,16.881l-94.924,0.293l8.12,27.715L433.408,299.56z"/>
	<path style="fill:#B27214;" d="M207.162,461.424c-6.712-1.926-13.266-4.223-19.629-6.881l-16.172-55.205l-11.847,40.418
		c-5.023-3.255-9.876-6.757-14.528-10.485l17.568-59.98l-14.449-49.315l-25.699,87.694c-4.572-5.214-8.84-10.687-12.782-16.419
		l29.674-101.31l-14.449-49.326L90.941,356.341c-0.518-1.284-1.014-2.579-1.498-3.874c-3.086-8.322-5.575-16.938-7.41-25.8
		l34.021-116.074l-6.171-21.059c4.065-5.856,8.469-11.464,13.187-16.78L207.162,461.424z"/>
</g>
<g>
</g>
<g>
</g>
<g>
</g>
<g>
</g>
<g>
</g>
<g>
</g>
<g>
</g>
<g>
</g>
<g>
</g>
<g>
</g>
<g>
</g>
<g>
</g>
<g>
</g>
<g>
</g>
<g>
</g>
</svg>
