<?xml version="1.0" encoding="utf-8"?>
<!-- Generator: Adobe Illustrator 19.0.0, SVG Export Plug-In . SVG Version: 6.00 Build 0)  -->
<svg version="1.1" id="Layer_1" xmlns="http://www.w3.org/2000/svg" xmlns:xlink="http://www.w3.org/1999/xlink" x="0px" y="0px"
	 viewBox="0 0 500 500" style="enable-background:new 0 0 500 500;" xml:space="preserve">
<g id="XMLID_1_">
	<path id="XMLID_173_" d="M353.4,10c5.4,3.8,11,5.8,18,5.3c9.5-0.7,17.9,2.6,23.1,11.4c11.6-2.8,25.6,6.3,27.9,22.4
		c10.5,1.3,16.5,8.7,17.6,22.4c0.3,3.1,1.6,4.5,3.7,6.7c3.2,3.2,6.1,7.7,6.9,12.1c1.2,6.2,1,12.8,0.4,19.1
		c-0.6,7.2-1.1,14.1-0.6,21.5c1.7,24.3-6.5,45.2-26.1,60.8c-1,0.8-2.1,2-2.4,3.2c-3.8,15.5-14.5,24.9-28.1,31.7
		c-1.9,1-4,2.8-4.8,4.8c-5.2,12.2-13.5,20.7-26.7,24.2c-1.7,0.4-3.6,1.8-4.4,3.2c-5.1,9.3-12.1,16.7-21.1,22.2c-0.6,0.4-1.3,1-1.9,1
		c-8.5,0.2-12.1,7.2-17.5,11.9c-8.1,7.2-17.4,13-26.1,19.5c-2.7,2-5.3,4.1-7.6,6.5c-5.9,6.2-11.5,12.7-17.3,18.9
		c-4.2,4.5-9.5,5.5-14.7,2.7c-5.9-3.1-11.2-7.3-16.7-11.1c-3-2.1-5.6-4.8-8.8-6.5c-7.6-4.1-15-8.3-19.1-16.5
		c-0.6-1.3-2.8-1.7-4.3-2.6c-9.4-5.1-18.8-10.1-28-15.4c-2.1-1.2-4.3-3.1-5.2-5.2c-3.4-7.8-10.4-11.1-17.2-15
		c-11-6.4-21-14.1-27.8-25.2c-0.7-1.1-2-2.1-3.2-2.4c-16.2-3.9-25.5-15-30.8-29.9c-1.2-3.5-3.1-5.5-6.3-7.2
		c-11.3-5.6-21.3-13.2-21.9-26.8c-0.4-7.9-2.9-13.7-7.2-19.9c-5.5-7.9-6.1-17.3-4.3-26.8c0.3-1.4,0.3-3.3-0.4-4.3
		c-5.4-7.4-4.2-15-1.4-23c1.5-4.5,2.8-9.1,3.6-13.7c1.8-10.3,5.8-19,15.1-24.7c1.3-0.8,2.4-2.5,3-4c3.7-10.7,10.3-18.6,21-22.9
		c1.1-0.4,2.2-1.2,2.8-2.2c7-9.6,16.5-14.4,28.4-14.3c1.1,0,2.8,0,3.3-0.7c4.8-6.4,11.8-8.8,18.9-11.1c2.5,0,5,0,7.5,0
		c4.6,1.2,9.6,4.1,13.8,3.2c11.6-2.3,22.2-0.9,31.6,5.9c5,3.6,9.9,5.5,16,6.8c18.7,3.9,31.4,15.7,38.7,32.1c2.7-4,5-9.8,9.3-12.9
		c4.9-3.6,11.8-4.3,17.3-7.4c5.6-3.2,10.4-7.8,15.6-11.7c0.7-0.5,1.7-0.5,2.5-0.9c1-0.6,2-1.2,2.7-2.1c7.4-9.6,17.5-13.1,28.9-10.6
		c5.7,1.3,10.1,0.4,14.7-2.3C347,10,350.2,10,353.4,10z M345.2,257.5c-6.1-0.8-11.2-1.2-16.2-2.1c-18.8-3.4-37-9.2-53.9-18.1
		c-20.5-10.8-41.6-20.8-60.7-33.8c-29.9-20.4-53-47.5-71.4-78.8c-14-23.9-28.7-47.3-43.2-70.9c-0.9-1.5-2.4-3.6-3.9-3.8
		c-4.5-0.8-7.8,1.9-10.3,5.4c-2.2,3.1-4,5.9-1.6,10.1c7.3,12.7,13.8,25.8,21.3,38.4c17.2,29.1,35.9,57.3,59.5,81.7
		c39.8,41.1,88.3,67.5,142.6,84.4c12,3.7,21.5,2.2,30.6-5.5C340.3,262.3,342.4,260.2,345.2,257.5z M139.6,26
		c5.4,10.8,11,21.8,16.4,32.8c12.1,24.2,25.3,47.6,44,67.5c52.9,56.3,119.5,80,195.2,82.1c7.2,0.2,15.9-9.1,16.2-17.3
		c-2,0-3.9,0-5.8,0c-20.4-0.4-40.7-1.2-60.7-5.3c-53.8-10.9-99.8-35.4-135.6-77.8c-20.2-23.9-35.2-51.1-49-79
		C155.9,20.2,147.8,18.8,139.6,26z M122.8,32.2c-3.4,1.5-7,2.9-10.4,4.6c-2.9,1.4-3.3,3.4-1.7,6.5c21.7,43.3,47.3,84,80.8,119.3
		c24.4,25.7,52.1,46.4,86,58.4c26.8,9.5,54.3,15.9,82.4,20.1c6.6,1,17.9-8.6,19.5-16.8c-14.2,2.7-27.7-1.1-41.3-4.1
		c-53.2-11.8-100.7-34.8-139.2-74.1c-22.3-22.7-39.5-49.3-55.5-76.6C136.2,57.6,129.9,45.2,122.8,32.2z M282.1,150.7
		c2.9,1.5,4.9,2.7,7,3.6c17.5,8.2,13.2,9,27.8-3.3c33.9-28.6,62.9-61.9,90.7-96.2c5.2-6.4,2.7-14-5.2-17.1c-2.7-1-4.3-0.9-6.3,1.7
		c-10.2,13.6-20,27.5-31.1,40.3C341.1,107.1,318,135.7,282.1,150.7z M319.6,166.5c5.2,1.6,9.4,2.9,13.6,4.3c6.7,2.2,12,1.1,17.4-4
		c27.5-25.8,52.8-53.7,76.5-83.1c4.3-5.3,3.6-14.9-1.2-19.9c-2.6-2.7-4.8-3-7.4,0.3c-6.7,8.3-13.9,16.3-20.6,24.7
		C375.1,117.5,352.1,145.9,319.6,166.5z M438.9,91.7c-24.3,28.5-45.6,59.6-75.7,84.8c8.2,0.7,14.9,1.6,21.7,1.8c2,0.1,4.6-1,6-2.5
		c5-5.3,10-10.8,14.4-16.6c11.2-14.8,22.4-29.6,33-44.8C444.1,106.2,443.8,97.6,438.9,91.7z M283.3,135.2c4.8-2.5,9.2-4.7,13.6-7.1
		c2.7-1.5,3.7-3.7,2.7-6.7c-6.7-21.8-13.4-43.5-20.3-65.2c-1.7-5.2-4.1-6-8.1-2.2c-3.7,3.5-6.5,8-9,12.4c-1,1.7-1,4.8-0.2,6.8
		c4.8,12.1,10.3,23.9,14.7,36.1C279.6,117.4,281,126.1,283.3,135.2z M74.6,176.4c-1.6,5.1,0.3,10.3,5,13.7c4.2,3.1,9.1,5.9,14.1,7.2
		c21.8,5.9,44,3.5,66.8,2.6c-4.8-5.7-9-10.7-13.3-15.6c-0.7-0.8-2.1-1.4-3.2-1.5C121.1,180.6,98.1,178.5,74.6,176.4z M212.8,39.5
		c3.8,5.9,6.9,10.6,9.9,15.4c13.6,22.7,26.1,46,30.1,72.7c0.2,1.1,0.8,2.7,1.7,3.2c5.3,3,10.7,5.8,17.1,9.2
		c-2.9-21.1-9.2-39.6-17.6-57.4c-6-12.7-13-24.6-23.6-34.2C225.8,44.2,220.7,40.7,212.8,39.5z M310.9,116.2c4.8-3.9,9-6.9,12.7-10.4
		c1.2-1.2,2.2-3.8,1.8-5.3c-5.5-19.9-11-39.7-17.1-59.4c-2.7-8.6-4.8-9-12.7-4.6c-1.7,0.9-3.7,1.9-4.6,3.5c-1,1.5-1.7,4.1-1,5.6
		C299.7,67.8,306,91.1,310.9,116.2z M172.6,24.4c20.2,32.6,36.7,67.5,66.3,93.3c-1.3-5.1-2.7-10.1-5.2-14.5
		c-13.7-24.4-27.6-48.7-41.6-72.9C188.2,23.3,181.7,21.3,172.6,24.4z M108.1,213.6c-0.3,0.4-0.5,0.8-0.8,1.2
		c2.8,3.3,5.4,6.8,8.5,9.9c5.2,5.2,11,8.2,19,7.5c13.5-1,27.1-0.8,40.6-1.5c6.7-0.3,13.4-1.6,21.4-2.6c-6.4-4.6-11.4-8-16.1-11.8
		c-3.8-3-7.7-3.6-12.4-3.4c-15.1,0.8-30.3,1.2-45.5,1.5C117.9,214.7,113,214,108.1,213.6z M230.9,252.3c0.2-0.7,0.4-1.4,0.6-2
		c-5.2-3.3-10.2-6.9-15.6-9.9c-2.2-1.2-5.3-1.5-7.8-1.1c-13,2.1-25.8,4.6-38.8,6.7c-6.7,1.1-13.5,1.5-20.3,2.3
		c-0.3,0.5-0.5,1-0.8,1.6c4.5,3.6,9,7.1,13.4,10.7c3.9,3.1,7.9,3.4,12.9,2.3c10-2.3,20.2-3.7,30.3-5.5
		C213.5,255.8,222.2,254,230.9,252.3z M262.9,267c-1.5,21-10.2,38.5-19.9,56c3.6,2.4,6.8,4.5,10.1,6.7c2.3,1.6,3.9,1,5.9-1
		c5.1-4.9,8.8-10.5,11.3-17.2c4.4-11.8,8.6-23.6,10.1-36.3C274.6,272.5,269.2,269.9,262.9,267z M126.4,167.1
		c0.2-0.4,0.4-0.9,0.5-1.3c-5.1-6.1-10.2-12.2-15.5-18.2c-0.7-0.8-2.1-1.2-3.2-1.4c-10.7-1.8-21.4-3.5-32.1-5.1
		c-4.3-0.7-8.7-1.1-12.8-1.6c-3.4,11.7,1.5,19.5,12.4,20.8c3.5,0.4,7,1.1,10.6,1.6C99.6,163.6,113,165.4,126.4,167.1z M336.8,90.8
		c2.7-3.1,5.2-5.9,7.6-8.7c2.9-3.5,4-7.4,2.5-11.9c-4.9-14.7-9.7-29.4-14.8-44c-0.5-1.6-2.9-3.5-4.5-3.5c-4.3,0-8.5,0.9-13.2,1.5
		C322.1,47,329.3,68.5,336.8,90.8z M231.3,313.8c12.5-15.2,18.6-32.6,23-51.8c-6.1,0.8-11.4,1.2-16.5,2.2c-1.4,0.3-2.9,2.3-3.6,3.9
		c-2.9,6.7-5.2,13.6-8.3,20.2c-2.5,5.2-5.8,10-9,15.3C221.7,307.1,226.3,310.3,231.3,313.8z M62.5,105.4c-3.3,5.6-4.3,11.1-1.6,16.9
		c0.7,1.4,2.3,3.1,3.7,3.3c13.4,2.5,26.9,4.8,40.9,7.3c-3.2-6.2-6.2-12.1-9.4-18c-0.5-0.9-1.8-1.7-2.9-1.9
		C83,110.4,72.9,108,62.5,105.4z M442,130.5c-12.1,16.1-23.6,31.5-35.9,48c5-0.3,8.9-1,12.7-0.8c4,0.2,6.7-1.3,9-4.4
		C437.2,160.9,441.1,146.7,442,130.5z M357.8,64c6.8-6.2,10.7-12.9,6.6-22.1c-1-2.2-1.2-4.8-1.9-7.2c-2.5-9.2-8.2-13.2-17.9-12.8
		C349,35.9,353.4,49.9,357.8,64z M220.9,268.6c-12.4,2.5-23.8,4.8-35.1,7.1c-0.3,0.4-0.6,0.9-0.9,1.3c5.5,4.4,10.5,9.5,16.6,12.8
		c2.3,1.3,8.4-0.6,10.1-2.9C215.5,281.7,217.7,275.2,220.9,268.6z M288.4,300.6c9.4-2.5,15.5-8.6,21.2-16.3
		c-6.5-1.8-12.2-3.4-17.8-4.9C290.7,286.5,289.6,293.3,288.4,300.6z M86.3,96.1c-4.1-7.8-7.6-14.6-11.9-22.9
		c-3.9,6.5-7.1,11.7-10.7,17.6C71.9,92.7,78.5,94.3,86.3,96.1z M371.8,24.7c1.3,6.8,2.4,12.3,3.6,18.5c2.4-2.3,4.2-4,6-5.7
		c5.3-5.1,4.5-8.6-2.6-11.1C376.9,25.7,374.8,25.4,371.8,24.7z"/>
	<path id="XMLID_170_" d="M8,296.4c2.2-6.6,4.1-13.2,6.6-19.7c1.3-3.4,3.3-6.8,5.5-9.7c7.4-9.6,16.2-12,27.4-8
		c3.5,1.3,6.9,2.8,10.5,4.1c4.1,1.5,5.4,4.6,4.3,8.5c-1.2,4.3-2.8,8.4-4.3,13.1c3.1,1.3,5.9,2.6,8.8,3.8
		C195.8,342,324.8,395.3,453.5,449.4c12.4,5.2,22.8,15.1,33.8,23.3c1.6,1.2,2.9,5.7,2.1,6.7c-1.6,1.8-5,3.2-7.5,3.1
		c-20.5-1.2-38.9-9.2-57.6-16.9C317.9,421.7,211.5,378.3,105,334.8c-19.1-7.8-38.2-15.7-58-23.8c-1.9,4.1-3.6,7.9-5.4,11.7
		c-2.5,5.1-4.3,5.3-9.8,3.8c-13.7-3.9-20.7-13.5-23.9-26.7C8,298.6,8,297.5,8,296.4z M50.3,274.1c-2.6-1.1-4.3-1.9-6.1-2.6
		c-8.1-3.3-13.1-1.9-17.3,5.8c-2.5,4.5-4.1,9.4-6,14.2c-2.7,6.8,2.3,18,9.3,20.3c1.3,0.4,4.1-0.5,4.5-1.5
		C40,298.4,45.1,286.4,50.3,274.1z"/>
	<path id="XMLID_166_" d="M440.8,284.8c-1.6-4.8-3.1-8.8-4.3-12.9c-1.3-4.3,0.2-7.3,4.5-8.8c3.2-1.1,6.4-2.3,9.4-3.8
		c9.4-4.4,18.2-2.9,25,4.5c9.8,10.7,16,23.4,14.2,38.3c-1.2,10.3-7.6,17.8-17.3,22.2c-1.9,0.9-4.1,1.4-6,2.3c-4.4,2.1-7.2,0.6-9-3.5
		c-1.8-3.9-3.5-7.7-5.4-12.1c-13.4,5.5-26.4,10.8-39.3,16.1c-35.9,14.7-71.9,29.5-107.9,44.1c-2.3,0.9-5.6,1-8,0.1
		c-10.5-4-20.8-8.5-32-13.2C323.9,333.4,382.2,309.1,440.8,284.8z M448.5,274.1c5.3,12.3,10.3,24.2,15.6,36c0.5,1.1,3.1,2.3,4.4,1.9
		c6.4-1.8,12.1-13.4,9.9-19.7c-1.4-4-2.8-8.1-4.7-11.9c-5.8-11.5-11.3-13.1-20.6-8.3C451.8,272.7,450.7,273.1,448.5,274.1z"/>
	<path id="XMLID_165_" d="M233.9,400.1c-13.8,5.7-26.4,10.9-39.1,16.1c-47.3,19.5-94.4,39.4-141.9,58.1c-11.7,4.6-24.8,6-37.4,8.3
		c-1.8,0.3-5.5-1.5-6-3.1c-0.6-2,0.4-5.7,2-6.9c11-8.1,21.5-17.9,33.8-23.2c49.5-21.6,99.5-41.8,149.5-62.3c2.1-0.9,5.2-0.8,7.4,0.1
		C212.4,391.1,222.6,395.4,233.9,400.1z"/>
</g>
</svg>
